<svg width="512" height="512" viewBox="0 0 512 512" fill="none" xmlns="http://www.w3.org/2000/svg">
<path d="M0 0H512V512H0V0Z" fill="#3D1D74"/>
<path d="M159.467 145H202.685L218.379 195.586L234.315 145H277.533L248.56 223.304L261.174 256.797L244.184 309.138L218.379 250.33L193.511 309H152.707L88 145H138.945L176.127 256.797L187.957 223.304L159.467 145Z" fill="#E0B3FF"/>
<path d="M244.184 424V376.878C242.322 376.101 245.33 378.277 244.184 376.878C242.322 376.878 246.046 377.811 244.184 376.878C243.038 377.655 252.132 371.128 244.184 376.878C243.468 378.433 245.473 376.101 244.184 376.878C244.184 378.899 244.9 375.324 244.184 376.878V309.138L284.293 309L285 373.381C285 383.485 283.067 392.423 279.2 400.195C275.476 407.968 270.321 414.03 263.733 418.383C257.145 422.735 244.184 424 244.184 424Z" fill="#96CEF4"/>
<path d="M218.369 424V376.878C220.231 376.101 217.223 378.277 218.369 376.878C220.231 376.878 216.507 377.811 218.369 376.878C219.515 377.655 210.421 371.128 218.369 376.878C219.085 378.433 217.08 376.101 218.369 376.878C218.369 378.899 217.653 375.324 218.369 376.878V373.381H196C196 383.485 196.033 392.423 199.9 400.195C203.623 407.968 211.781 419.647 218.369 424Z" fill="#96CEF4"/>
<path d="M244.184 309.138L298.027 143.266L350.131 143.266L316.5 223.304L384.761 143.266L423 143.266L284.601 309.555L244.184 309.138Z" fill="#D0C0E3"/>
</svg>
