<svg width="263" height="282" viewBox="0 0 263 282" fill="none" xmlns="http://www.w3.org/2000/svg">
<path d="M71.9672 2.5H115.185L130.879 53.0859L146.815 2.5H190.033L161.06 80.8042L175.055 114.297L210.527 0.765747L262.631 0.765762L197.101 167.055H156.684L130.879 107.83L156.684 166.638V167.055L130.879 107.83L106.011 211.5H65.2068L0.5 2.5H51.4445L88.6267 114.297L100.457 80.8042L71.9672 2.5Z" fill="#8C64C5"/>
<path d="M156.684 281.5V234.378C157.83 235.777 154.822 233.601 156.684 234.378C158.546 235.311 154.822 234.378 156.684 234.378C164.632 228.628 155.538 235.155 156.684 234.378C157.973 233.601 155.968 235.933 156.684 234.378C157.4 232.824 156.684 236.399 156.684 234.378V166.638V167.055H197.101L197.5 230.881C197.5 240.985 195.567 249.923 191.7 257.695C187.976 265.468 182.821 271.53 176.233 275.883C169.645 280.235 156.684 281.5 156.684 281.5Z" fill="#447EA1"/>
<path d="M130.869 281.5V230.881H106.011V221.5H65.2068C65.2068 231.604 65.5329 249.923 69.3996 257.695C73.1232 265.468 124.281 277.147 130.869 281.5Z" fill="#447EA1"/>
<path d="M156.684 166.638L130.879 107.83L156.684 167.055V166.638L130.879 107.83L156.684 167.055V166.638Z" fill="#8C64C5"/>
</svg>
