<svg width="263" height="282" viewBox="0 0 263 282" fill="none" xmlns="http://www.w3.org/2000/svg">
    <path d="M71.9672 2.5H115.185L130.879 53.0859L146.815 2.5H190.033L161.06 80.8042L197.101 167.055L156.684 166.638L130.879 107.83L106.011 211.5H65.2068L0.5 2.5H51.4445L88.6267 114.297L100.457 80.8042L71.9672 2.5Z" fill="#E0B3FF"/>
    <path d="M156.684 281.5V234.378C154.822 233.601 157.83 235.777 156.684 234.378C154.822 234.378 158.546 235.311 156.684 234.378C155.538 235.155 164.632 228.628 156.684 234.378C155.968 235.933 157.973 233.601 156.684 234.378C156.684 236.399 157.4 232.824 156.684 234.378V166.638L196.793 166.5L197.5 230.881C197.5 240.985 195.567 249.923 191.7 257.695C187.976 265.468 182.821 271.53 176.233 275.883C169.645 280.235 156.684 281.5 156.684 281.5Z" fill="#96CEF4"/>
    <path d="M130.869 281.5V234.378C132.731 233.601 129.723 235.777 130.869 234.378C132.731 234.378 129.007 235.311 130.869 234.378C132.015 235.155 122.921 228.628 130.869 234.378C130.869 230.881 129.58 233.601 130.869 234.378C130.869 236.399 130.153 232.824 130.869 234.378V230.881H106.011V221.5H65.2068C65.2068 231.604 65.5329 249.923 69.3996 257.695C73.1232 265.468 124.281 277.147 130.869 281.5Z" fill="#96CEF4"/>
    <path d="M156.684 166.638L130.879 107.83L161.06 80.8042L175.055 114.297L210.527 0.765747L262.631 0.765762L197.101 167.055L156.684 166.638Z" fill="#E0B3FF"/>
</svg>
